<svg xmlns="http://www.w3.org/2000/svg" xmlns:xlink="http://www.w3.org/1999/xlink" width="500" zoomAndPan="magnify" viewBox="0 0 375 374.999991" height="500" preserveAspectRatio="xMidYMid meet" version="1.2"><defs><clipPath id="b3de38871e"><path d="M 90 233 L 135 233 L 135 257 L 90 257 Z M 90 233 "/></clipPath></defs><g id="2798024b50"><rect x="0" width="375" y="0" height="374.999991" style="fill:#ffffff;fill-opacity:1;stroke:none;"/><rect x="0" width="375" y="0" height="374.999991" style="fill:#12492e;fill-opacity:1;stroke:none;"/><g style="fill:#ff6d4d;fill-opacity:1;"><g transform="translate(118.688323, 209.713161)"><path style="stroke:none" d="M 56.203125 -18.671875 L 21.421875 -94.46875 L 21.421875 -34.28125 C 21.421875 -28.75 22.03125 -25.289062 23.25 -23.90625 C 24.851562 -22.082031 27.425781 -21.171875 30.96875 -21.171875 L 34.203125 -21.171875 L 34.203125 -18.671875 L 2.828125 -18.671875 L 2.828125 -21.171875 L 5.984375 -21.171875 C 9.796875 -21.171875 12.503906 -22.304688 14.109375 -24.578125 C 15.109375 -26.015625 15.609375 -29.25 15.609375 -34.28125 L 15.609375 -93.140625 C 15.609375 -97.117188 15.164062 -99.992188 14.28125 -101.765625 C 13.613281 -103.035156 12.445312 -104.097656 10.78125 -104.953125 C 9.125 -105.816406 6.472656 -106.25 2.828125 -106.25 L 2.828125 -108.734375 L 28.3125 -108.734375 L 61.015625 -38.265625 L 93.140625 -108.734375 L 118.625 -108.734375 L 118.625 -106.25 L 115.546875 -106.25 C 111.671875 -106.25 108.929688 -105.113281 107.328125 -102.84375 C 106.390625 -101.40625 105.921875 -98.171875 105.921875 -93.140625 L 105.921875 -34.28125 C 105.921875 -28.75 106.53125 -25.289062 107.75 -23.90625 C 109.40625 -22.082031 112.003906 -21.171875 115.546875 -21.171875 L 118.625 -21.171875 L 118.625 -18.671875 L 80.359375 -18.671875 L 80.359375 -21.171875 L 83.59375 -21.171875 C 87.40625 -21.171875 90.085938 -22.304688 91.640625 -24.578125 C 92.640625 -26.015625 93.140625 -29.25 93.140625 -34.28125 L 93.140625 -94.46875 L 58.4375 -18.671875 Z M 56.203125 -18.671875 "/></g></g><g style="fill:#12492e;fill-opacity:1;"><g transform="translate(165.175438, 245.968659)"><path style="stroke:none" d="M 86.625 -111.058594 L 88.957031 -76.648438 L 80.449219 -76.648438 L 79.699219 -79.179688 C 77.199219 -87.597656 73.695312 -93.59375 69.1875 -97.171875 C 64.742188 -100.699219 59.359375 -102.460938 53.042969 -102.460938 C 47.746094 -102.460938 42.964844 -101.121094 38.699219 -98.441406 C 34.492188 -95.796875 31.148438 -91.5 28.667969 -85.550781 C 26.085938 -79.34375 24.792969 -71.554688 24.792969 -62.175781 C 24.792969 -54.535156 26.007812 -47.953125 28.433594 -42.433594 C 30.765625 -37.136719 34.226562 -33.089844 38.820312 -30.292969 C 43.484375 -27.457031 48.863281 -26.035156 54.953125 -26.035156 C 60.203125 -26.035156 64.789062 -27.132812 68.707031 -29.320312 C 72.707031 -31.558594 77.238281 -36.171875 82.300781 -43.167969 L 84.261719 -45.875 L 91.984375 -40.929688 L 90.320312 -38.007812 C 85.488281 -29.519531 79.8125 -23.25 73.300781 -19.199219 C 66.722656 -15.105469 58.949219 -13.0625 49.972656 -13.0625 C 41.964844 -13.0625 34.828125 -14.558594 28.5625 -17.558594 C 22.25 -20.578125 16.871094 -25.089844 12.425781 -31.097656 C 5.878906 -39.96875 2.601562 -50.386719 2.601562 -62.339844 C 2.601562 -71.898438 4.761719 -80.703125 9.082031 -88.753906 C 13.433594 -96.859375 19.425781 -103.160156 27.050781 -107.644531 C 34.660156 -112.121094 42.964844 -114.359375 51.964844 -114.359375 C 59.058594 -114.359375 66.015625 -112.625 72.828125 -109.160156 C 73.667969 -108.714844 74.351562 -108.394531 74.875 -108.199219 C 75.066406 -108.125 75.21875 -108.078125 75.339844 -108.046875 C 75.359375 -108.042969 75.367188 -108.042969 75.367188 -108.042969 C 75.324219 -108.046875 75.269531 -108.050781 75.207031 -108.050781 C 75.445312 -108.050781 75.664062 -108.148438 75.859375 -108.339844 L 78.363281 -105.835938 L 75.796875 -108.28125 C 76.457031 -108.972656 76.964844 -110.085938 77.320312 -111.613281 L 77.953125 -114.359375 L 86.402344 -114.359375 Z M 79.558594 -110.578125 L 83.09375 -110.816406 L 83.09375 -107.277344 L 80.769531 -107.277344 L 80.769531 -110.816406 L 84.21875 -110.023438 C 83.574219 -107.234375 82.476562 -105.027344 80.925781 -103.394531 L 80.894531 -103.363281 L 80.867188 -103.332031 C 79.289062 -101.757812 77.402344 -100.96875 75.207031 -100.96875 C 73.847656 -100.96875 71.984375 -101.59375 69.617188 -102.847656 C 63.8125 -105.800781 57.929688 -107.277344 51.964844 -107.277344 C 44.25 -107.277344 37.144531 -105.363281 30.640625 -101.539062 C 24.15625 -97.726562 19.050781 -92.347656 15.324219 -85.402344 C 11.5625 -78.398438 9.683594 -70.710938 9.683594 -62.339844 C 9.683594 -51.9375 12.496094 -42.929688 18.121094 -35.308594 C 21.867188 -30.25 26.367188 -26.460938 31.621094 -23.945312 C 36.917969 -21.410156 43.035156 -20.144531 49.972656 -20.144531 C 57.597656 -20.144531 64.128906 -21.832031 69.558594 -25.210938 C 75.054688 -28.632812 79.925781 -34.066406 84.167969 -41.515625 L 87.242188 -39.761719 L 85.335938 -36.78125 L 83.257812 -38.109375 L 85.167969 -41.089844 L 88.035156 -39.011719 C 82.363281 -31.175781 77.070312 -25.886719 72.160156 -23.140625 C 67.171875 -20.351562 61.433594 -18.953125 54.953125 -18.953125 C 47.539062 -18.953125 40.933594 -20.71875 35.140625 -24.242188 C 29.277344 -27.8125 24.878906 -32.925781 21.953125 -39.582031 C 19.125 -46.011719 17.710938 -53.542969 17.710938 -62.175781 C 17.710938 -72.496094 19.183594 -81.195312 22.132812 -88.273438 C 25.1875 -95.605469 29.453125 -100.992188 34.929688 -104.4375 C 40.347656 -107.84375 46.386719 -109.542969 53.042969 -109.542969 C 61.003906 -109.542969 67.855469 -107.269531 73.589844 -102.71875 C 79.265625 -98.214844 83.5625 -91.039062 86.488281 -81.195312 L 83.09375 -80.1875 L 83.09375 -83.730469 L 85.167969 -83.730469 L 85.167969 -80.1875 L 81.636719 -79.949219 Z M 79.558594 -110.578125 "/></g></g><g style="fill:#ff6d4d;fill-opacity:1;"><g transform="translate(165.175438, 245.968659)"><path style="stroke:none" d="M 83.09375 -110.8125 L 85.171875 -80.1875 L 83.09375 -80.1875 C 80.382812 -89.320312 76.484375 -95.90625 71.390625 -99.9375 C 66.296875 -103.976562 60.179688 -106 53.046875 -106 C 47.066406 -106 41.65625 -104.476562 36.8125 -101.4375 C 31.96875 -98.394531 28.160156 -93.550781 25.390625 -86.90625 C 22.628906 -80.269531 21.25 -72.023438 21.25 -62.171875 C 21.25 -54.035156 22.5625 -46.976562 25.1875 -41 C 27.820312 -35.03125 31.753906 -30.453125 36.984375 -27.265625 C 42.210938 -24.085938 48.203125 -22.5 54.953125 -22.5 C 60.816406 -22.5 65.972656 -23.742188 70.421875 -26.234375 C 74.878906 -28.722656 79.796875 -33.675781 85.171875 -41.09375 L 87.25 -39.765625 C 82.707031 -31.796875 77.429688 -25.941406 71.421875 -22.203125 C 65.421875 -18.472656 58.269531 -16.609375 49.96875 -16.609375 C 35.03125 -16.609375 23.46875 -22.140625 15.28125 -33.203125 C 9.1875 -41.453125 6.140625 -51.164062 6.140625 -62.34375 C 6.140625 -71.300781 8.160156 -79.539062 12.203125 -87.0625 C 16.242188 -94.59375 21.789062 -100.429688 28.84375 -104.578125 C 35.894531 -108.734375 43.601562 -110.8125 51.96875 -110.8125 C 58.5 -110.8125 64.914062 -109.207031 71.21875 -106 C 73.101562 -105.007812 74.429688 -104.515625 75.203125 -104.515625 C 76.421875 -104.515625 77.472656 -104.957031 78.359375 -105.84375 C 79.460938 -107 80.265625 -108.65625 80.765625 -110.8125 Z M 83.09375 -110.8125 "/></g></g><g clip-rule="nonzero" clip-path="url(#b3de38871e)"><g style="fill:#ff6d4d;fill-opacity:1;"><g transform="translate(89.236062, 256.25203)"><path style="stroke:none" d="M 46.078125 -22.515625 C 46.191406 -22.515625 46.269531 -22.453125 46.3125 -22.328125 C 46.351562 -22.203125 46.34375 -22.097656 46.28125 -22.015625 C 45.113281 -20.867188 44.078125 -19.59375 43.171875 -18.1875 C 42.273438 -16.78125 41.515625 -15.332031 40.890625 -13.84375 C 40.273438 -12.363281 39.8125 -10.894531 39.5 -9.4375 C 39.195312 -7.988281 39.046875 -6.660156 39.046875 -5.453125 C 39.046875 -4.210938 39.191406 -3.242188 39.484375 -2.546875 C 39.785156 -1.859375 40.195312 -1.515625 40.71875 -1.515625 C 41.175781 -1.515625 41.617188 -1.679688 42.046875 -2.015625 C 42.472656 -2.359375 42.890625 -2.84375 43.296875 -3.46875 C 43.367188 -3.507812 43.441406 -3.503906 43.515625 -3.453125 C 43.597656 -3.410156 43.628906 -3.332031 43.609375 -3.21875 C 43.359375 -2.832031 43.070312 -2.453125 42.75 -2.078125 C 42.425781 -1.703125 42.078125 -1.359375 41.703125 -1.046875 C 41.328125 -0.734375 40.941406 -0.476562 40.546875 -0.28125 C 40.160156 -0.09375 39.785156 0 39.421875 0 C 38.578125 0 37.945312 -0.382812 37.53125 -1.15625 C 37.125 -1.9375 36.921875 -2.976562 36.921875 -4.28125 C 36.921875 -5.351562 37.046875 -6.546875 37.296875 -7.859375 C 37.546875 -9.179688 37.914062 -10.523438 38.40625 -11.890625 C 38.90625 -13.265625 39.5 -14.609375 40.1875 -15.921875 C 40.882812 -17.234375 41.679688 -18.414062 42.578125 -19.46875 C 41.203125 -18.4375 39.78125 -17.203125 38.3125 -15.765625 C 36.851562 -14.328125 35.441406 -12.789062 34.078125 -11.15625 C 32.722656 -9.519531 31.457031 -7.832031 30.28125 -6.09375 C 29.101562 -4.363281 28.128906 -2.675781 27.359375 -1.03125 C 27.304688 -0.9375 27.210938 -0.828125 27.078125 -0.703125 C 26.941406 -0.578125 26.78125 -0.460938 26.59375 -0.359375 C 26.414062 -0.253906 26.234375 -0.164062 26.046875 -0.09375 C 25.867188 -0.03125 25.710938 0 25.578125 0 C 25.390625 0 25.320312 -0.078125 25.375 -0.234375 C 25.800781 -3.773438 26.421875 -6.925781 27.234375 -9.6875 C 28.046875 -12.457031 29 -15.007812 30.09375 -17.34375 C 28.269531 -14.601562 26.484375 -12.148438 24.734375 -9.984375 C 22.984375 -7.828125 21.222656 -6.007812 19.453125 -4.53125 C 17.679688 -3.0625 15.878906 -1.9375 14.046875 -1.15625 C 12.222656 -0.382812 10.34375 0 8.40625 0 C 6.25 0 4.59375 -0.535156 3.4375 -1.609375 C 2.289062 -2.679688 1.71875 -4.097656 1.71875 -5.859375 C 1.71875 -7.023438 2.046875 -8.070312 2.703125 -9 C 3.367188 -9.925781 4.285156 -10.601562 5.453125 -11.03125 C 5.546875 -11.082031 5.609375 -11.0625 5.640625 -10.96875 C 5.671875 -10.875 5.664062 -10.796875 5.625 -10.734375 C 4.914062 -10.273438 4.414062 -9.75 4.125 -9.15625 C 3.84375 -8.5625 3.703125 -7.785156 3.703125 -6.828125 C 3.703125 -6.066406 3.828125 -5.347656 4.078125 -4.671875 C 4.328125 -4.003906 4.691406 -3.410156 5.171875 -2.890625 C 5.648438 -2.378906 6.253906 -1.972656 6.984375 -1.671875 C 7.722656 -1.378906 8.570312 -1.234375 9.53125 -1.234375 C 11.519531 -1.234375 13.421875 -1.691406 15.234375 -2.609375 C 17.054688 -3.523438 18.828125 -4.773438 20.546875 -6.359375 C 22.273438 -7.941406 23.96875 -9.804688 25.625 -11.953125 C 27.28125 -14.109375 28.929688 -16.421875 30.578125 -18.890625 C 28.972656 -19.441406 27.296875 -19.90625 25.546875 -20.28125 C 23.804688 -20.65625 22.125 -20.84375 20.5 -20.84375 C 18.644531 -20.84375 17.210938 -20.320312 16.203125 -19.28125 C 15.203125 -18.238281 14.585938 -16.835938 14.359375 -15.078125 C 14.316406 -14.960938 14.253906 -14.914062 14.171875 -14.9375 C 14.097656 -14.96875 14.046875 -15.039062 14.015625 -15.15625 C 14.265625 -17.414062 15.085938 -19.140625 16.484375 -20.328125 C 17.878906 -21.515625 19.695312 -22.109375 21.9375 -22.109375 C 22.851562 -22.109375 23.820312 -22.046875 24.84375 -21.921875 C 25.875 -21.796875 26.882812 -21.628906 27.875 -21.421875 C 28.875 -21.222656 29.828125 -21 30.734375 -20.75 C 31.640625 -20.507812 32.429688 -20.273438 33.109375 -20.046875 C 33.203125 -20.078125 33.316406 -20.113281 33.453125 -20.15625 C 33.546875 -20.132812 33.601562 -20.078125 33.625 -19.984375 C 33.65625 -19.890625 33.644531 -19.8125 33.59375 -19.75 C 33.269531 -19.5625 33 -19.3125 32.78125 -19 C 32.570312 -18.695312 32.34375 -18.316406 32.09375 -17.859375 C 30.945312 -15.546875 30.035156 -13.140625 29.359375 -10.640625 C 28.679688 -8.140625 28.128906 -5.609375 27.703125 -3.046875 C 28.753906 -4.941406 29.992188 -6.84375 31.421875 -8.75 C 32.847656 -10.664062 34.367188 -12.476562 35.984375 -14.1875 C 37.609375 -15.90625 39.285156 -17.484375 41.015625 -18.921875 C 42.742188 -20.359375 44.429688 -21.554688 46.078125 -22.515625 Z M 46.078125 -22.515625 "/></g></g></g><g style="fill:#ff6d4d;fill-opacity:1;"><g transform="translate(133.008268, 256.25203)"><path style="stroke:none" d="M 10.421875 -2.15625 C 10.460938 -2.207031 10.519531 -2.207031 10.59375 -2.15625 C 10.664062 -2.113281 10.6875 -2.046875 10.65625 -1.953125 C 10.25 -1.359375 9.789062 -0.882812 9.28125 -0.53125 C 8.78125 -0.175781 8.300781 0 7.84375 0 C 7.320312 0 6.984375 -0.367188 6.828125 -1.109375 C 6.679688 -1.859375 6.757812 -2.742188 7.0625 -3.765625 C 6.445312 -2.785156 5.78125 -1.945312 5.0625 -1.25 C 4.34375 -0.550781 3.582031 -0.132812 2.78125 0 C 2.226562 0 1.800781 -0.25 1.5 -0.75 C 1.207031 -1.257812 1.0625 -1.84375 1.0625 -2.5 C 1.0625 -3.257812 1.242188 -4.007812 1.609375 -4.75 C 1.972656 -5.488281 2.457031 -6.15625 3.0625 -6.75 C 3.675781 -7.34375 4.351562 -7.828125 5.09375 -8.203125 C 5.832031 -8.585938 6.582031 -8.78125 7.34375 -8.78125 C 8.132812 -8.78125 8.757812 -8.582031 9.21875 -8.1875 C 9.445312 -8.351562 9.738281 -8.492188 10.09375 -8.609375 C 10.445312 -8.722656 10.757812 -8.78125 11.03125 -8.78125 C 11.125 -8.78125 11.171875 -8.722656 11.171875 -8.609375 C 10.648438 -7.960938 10.195312 -7.253906 9.8125 -6.484375 C 9.4375 -5.722656 9.144531 -4.992188 8.9375 -4.296875 C 8.738281 -3.597656 8.613281 -2.972656 8.5625 -2.421875 C 8.519531 -1.878906 8.566406 -1.503906 8.703125 -1.296875 C 8.816406 -1.160156 9.007812 -1.117188 9.28125 -1.171875 C 9.5625 -1.234375 9.941406 -1.5625 10.421875 -2.15625 Z M 3.84375 -1.265625 C 4.113281 -1.265625 4.445312 -1.4375 4.84375 -1.78125 C 5.25 -2.125 5.664062 -2.582031 6.09375 -3.15625 C 6.53125 -3.726562 6.957031 -4.367188 7.375 -5.078125 C 7.800781 -5.785156 8.175781 -6.503906 8.5 -7.234375 C 8.40625 -7.523438 8.191406 -7.765625 7.859375 -7.953125 C 7.535156 -8.140625 7.15625 -8.234375 6.71875 -8.234375 C 6.195312 -8.234375 5.707031 -8.097656 5.25 -7.828125 C 4.789062 -7.566406 4.394531 -7.203125 4.0625 -6.734375 C 3.726562 -6.265625 3.460938 -5.703125 3.265625 -5.046875 C 3.078125 -4.398438 2.984375 -3.6875 2.984375 -2.90625 C 2.984375 -2.40625 3.066406 -2.003906 3.234375 -1.703125 C 3.410156 -1.410156 3.613281 -1.265625 3.84375 -1.265625 Z M 3.84375 -1.265625 "/></g></g><g style="fill:#ff6d4d;fill-opacity:1;"><g transform="translate(144.216966, 256.25203)"><path style="stroke:none" d="M 21.1875 -25.921875 C 21.53125 -25.921875 21.804688 -25.828125 22.015625 -25.640625 C 22.234375 -25.460938 22.390625 -25.222656 22.484375 -24.921875 C 22.578125 -24.628906 22.597656 -24.289062 22.546875 -23.90625 C 22.503906 -23.53125 22.394531 -23.160156 22.21875 -22.796875 C 22.164062 -22.753906 22.101562 -22.738281 22.03125 -22.75 C 21.96875 -22.757812 21.925781 -22.8125 21.90625 -22.90625 C 21.945312 -23.25 21.851562 -23.503906 21.625 -23.671875 C 21.394531 -23.835938 21.078125 -23.921875 20.671875 -23.921875 C 19.441406 -23.921875 18.253906 -23.507812 17.109375 -22.6875 C 15.960938 -21.863281 14.878906 -20.601562 13.859375 -18.90625 C 12.847656 -17.207031 11.910156 -15.046875 11.046875 -12.421875 C 10.191406 -9.804688 9.421875 -6.691406 8.734375 -3.078125 C 8.628906 -2.578125 8.617188 -2.148438 8.703125 -1.796875 C 8.796875 -1.441406 8.96875 -1.265625 9.21875 -1.265625 C 9.46875 -1.265625 9.707031 -1.367188 9.9375 -1.578125 C 10.164062 -1.785156 10.375 -2.046875 10.5625 -2.359375 C 10.601562 -2.410156 10.660156 -2.410156 10.734375 -2.359375 C 10.816406 -2.316406 10.847656 -2.25 10.828125 -2.15625 C 10.710938 -1.925781 10.546875 -1.6875 10.328125 -1.4375 C 10.117188 -1.1875 9.878906 -0.953125 9.609375 -0.734375 C 9.347656 -0.515625 9.070312 -0.335938 8.78125 -0.203125 C 8.5 -0.0664062 8.242188 0 8.015625 0 C 7.515625 0 7.160156 -0.179688 6.953125 -0.546875 C 6.753906 -0.910156 6.675781 -1.320312 6.71875 -1.78125 C 6.757812 -2.164062 6.816406 -2.53125 6.890625 -2.875 C 6.960938 -3.21875 7.039062 -3.585938 7.125 -3.984375 C 6.664062 -2.992188 6.023438 -2.140625 5.203125 -1.421875 C 4.390625 -0.703125 3.582031 -0.226562 2.78125 0 C 2.25 0 1.820312 -0.191406 1.5 -0.578125 C 1.1875 -0.972656 1.03125 -1.476562 1.03125 -2.09375 C 1.03125 -2.976562 1.1875 -3.828125 1.5 -4.640625 C 1.820312 -5.453125 2.257812 -6.164062 2.8125 -6.78125 C 3.363281 -7.40625 4.015625 -7.898438 4.765625 -8.265625 C 5.515625 -8.628906 6.328125 -8.8125 7.203125 -8.8125 C 7.679688 -8.8125 8.101562 -8.734375 8.46875 -8.578125 C 8.875 -9.804688 9.363281 -11.085938 9.9375 -12.421875 C 10.507812 -13.765625 11.140625 -15.070312 11.828125 -16.34375 C 12.515625 -17.625 13.238281 -18.847656 14 -20.015625 C 14.769531 -21.179688 15.550781 -22.195312 16.34375 -23.0625 C 17.144531 -23.9375 17.957031 -24.628906 18.78125 -25.140625 C 19.601562 -25.660156 20.40625 -25.921875 21.1875 -25.921875 Z M 3.875 -1.34375 C 4.125 -1.34375 4.421875 -1.472656 4.765625 -1.734375 C 5.109375 -1.992188 5.460938 -2.347656 5.828125 -2.796875 C 6.191406 -3.242188 6.535156 -3.753906 6.859375 -4.328125 C 7.179688 -4.910156 7.453125 -5.535156 7.671875 -6.203125 C 7.765625 -6.410156 7.84375 -6.625 7.90625 -6.84375 C 7.976562 -7.0625 8.039062 -7.269531 8.09375 -7.46875 C 8 -7.75 7.820312 -7.953125 7.5625 -8.078125 C 7.300781 -8.203125 7.007812 -8.265625 6.6875 -8.265625 C 6.207031 -8.265625 5.738281 -8.117188 5.28125 -7.828125 C 4.820312 -7.546875 4.421875 -7.148438 4.078125 -6.640625 C 3.734375 -6.140625 3.453125 -5.546875 3.234375 -4.859375 C 3.015625 -4.179688 2.90625 -3.429688 2.90625 -2.609375 C 2.90625 -2.242188 2.988281 -1.941406 3.15625 -1.703125 C 3.332031 -1.460938 3.570312 -1.34375 3.875 -1.34375 Z M 3.875 -1.34375 "/></g></g><g style="fill:#ff6d4d;fill-opacity:1;"><g transform="translate(155.08289, 256.25203)"><path style="stroke:none" d="M 0.828125 -0.3125 C 1.847656 -4.238281 3.023438 -7.78125 4.359375 -10.9375 C 5.703125 -14.09375 7.113281 -16.773438 8.59375 -18.984375 C 10.082031 -21.203125 11.585938 -22.910156 13.109375 -24.109375 C 14.628906 -25.316406 16.078125 -25.921875 17.453125 -25.921875 C 18.023438 -25.921875 18.472656 -25.785156 18.796875 -25.515625 C 19.128906 -25.253906 19.359375 -24.9375 19.484375 -24.5625 C 19.609375 -24.1875 19.625 -23.78125 19.53125 -23.34375 C 19.445312 -22.90625 19.28125 -22.519531 19.03125 -22.1875 C 18.957031 -22.113281 18.882812 -22.085938 18.8125 -22.109375 C 18.75 -22.128906 18.71875 -22.1875 18.71875 -22.28125 C 18.832031 -22.738281 18.707031 -23.171875 18.34375 -23.578125 C 17.976562 -23.992188 17.394531 -24.203125 16.59375 -24.203125 C 15.351562 -24.203125 14.179688 -23.867188 13.078125 -23.203125 C 11.972656 -22.546875 10.894531 -21.445312 9.84375 -19.90625 C 8.789062 -18.363281 7.757812 -16.316406 6.75 -13.765625 C 5.75 -11.210938 4.722656 -8.039062 3.671875 -4.25 C 4.015625 -4.863281 4.40625 -5.445312 4.84375 -6 C 5.289062 -6.550781 5.773438 -7.03125 6.296875 -7.4375 C 6.828125 -7.851562 7.390625 -8.179688 7.984375 -8.421875 C 8.578125 -8.660156 9.195312 -8.78125 9.84375 -8.78125 C 10.113281 -8.78125 10.3125 -8.707031 10.4375 -8.5625 C 10.5625 -8.425781 10.625 -8.269531 10.625 -8.09375 C 10.625 -7.789062 10.519531 -7.457031 10.3125 -7.09375 C 9.832031 -6.25 9.441406 -5.378906 9.140625 -4.484375 C 8.847656 -3.597656 8.703125 -2.789062 8.703125 -2.0625 C 8.703125 -1.738281 8.734375 -1.472656 8.796875 -1.265625 C 8.867188 -1.054688 9 -0.953125 9.1875 -0.953125 C 9.414062 -0.953125 9.664062 -1.070312 9.9375 -1.3125 C 10.21875 -1.5625 10.445312 -1.832031 10.625 -2.125 C 10.695312 -2.164062 10.765625 -2.15625 10.828125 -2.09375 C 10.898438 -2.039062 10.925781 -1.984375 10.90625 -1.921875 C 10.601562 -1.421875 10.179688 -0.972656 9.640625 -0.578125 C 9.109375 -0.191406 8.625 0 8.1875 0 C 7.800781 0 7.484375 -0.109375 7.234375 -0.328125 C 6.984375 -0.546875 6.859375 -0.914062 6.859375 -1.4375 C 6.859375 -1.851562 6.894531 -2.296875 6.96875 -2.765625 C 7.050781 -3.234375 7.15625 -3.691406 7.28125 -4.140625 C 7.40625 -4.597656 7.550781 -5.050781 7.71875 -5.5 C 7.894531 -5.945312 8.085938 -6.351562 8.296875 -6.71875 C 8.410156 -6.988281 8.46875 -7.179688 8.46875 -7.296875 C 8.46875 -7.503906 8.351562 -7.609375 8.125 -7.609375 C 7.6875 -7.609375 7.21875 -7.441406 6.71875 -7.109375 C 6.21875 -6.773438 5.726562 -6.304688 5.25 -5.703125 C 4.769531 -5.097656 4.304688 -4.375 3.859375 -3.53125 C 3.410156 -2.6875 3.023438 -1.75 2.703125 -0.71875 C 2.660156 -0.5625 2.476562 -0.398438 2.15625 -0.234375 C 1.84375 -0.078125 1.488281 0 1.09375 0 C 0.863281 0 0.773438 -0.101562 0.828125 -0.3125 Z M 0.828125 -0.3125 "/></g></g><g style="fill:#ff6d4d;fill-opacity:1;"><g transform="translate(166.188762, 256.25203)"><path style="stroke:none" d="M 10.421875 -2.15625 C 10.460938 -2.207031 10.519531 -2.207031 10.59375 -2.15625 C 10.664062 -2.113281 10.6875 -2.046875 10.65625 -1.953125 C 10.25 -1.359375 9.789062 -0.882812 9.28125 -0.53125 C 8.78125 -0.175781 8.300781 0 7.84375 0 C 7.320312 0 6.984375 -0.367188 6.828125 -1.109375 C 6.679688 -1.859375 6.757812 -2.742188 7.0625 -3.765625 C 6.445312 -2.785156 5.78125 -1.945312 5.0625 -1.25 C 4.34375 -0.550781 3.582031 -0.132812 2.78125 0 C 2.226562 0 1.800781 -0.25 1.5 -0.75 C 1.207031 -1.257812 1.0625 -1.84375 1.0625 -2.5 C 1.0625 -3.257812 1.242188 -4.007812 1.609375 -4.75 C 1.972656 -5.488281 2.457031 -6.15625 3.0625 -6.75 C 3.675781 -7.34375 4.351562 -7.828125 5.09375 -8.203125 C 5.832031 -8.585938 6.582031 -8.78125 7.34375 -8.78125 C 8.132812 -8.78125 8.757812 -8.582031 9.21875 -8.1875 C 9.445312 -8.351562 9.738281 -8.492188 10.09375 -8.609375 C 10.445312 -8.722656 10.757812 -8.78125 11.03125 -8.78125 C 11.125 -8.78125 11.171875 -8.722656 11.171875 -8.609375 C 10.648438 -7.960938 10.195312 -7.253906 9.8125 -6.484375 C 9.4375 -5.722656 9.144531 -4.992188 8.9375 -4.296875 C 8.738281 -3.597656 8.613281 -2.972656 8.5625 -2.421875 C 8.519531 -1.878906 8.566406 -1.503906 8.703125 -1.296875 C 8.816406 -1.160156 9.007812 -1.117188 9.28125 -1.171875 C 9.5625 -1.234375 9.941406 -1.5625 10.421875 -2.15625 Z M 3.84375 -1.265625 C 4.113281 -1.265625 4.445312 -1.4375 4.84375 -1.78125 C 5.25 -2.125 5.664062 -2.582031 6.09375 -3.15625 C 6.53125 -3.726562 6.957031 -4.367188 7.375 -5.078125 C 7.800781 -5.785156 8.175781 -6.503906 8.5 -7.234375 C 8.40625 -7.523438 8.191406 -7.765625 7.859375 -7.953125 C 7.535156 -8.140625 7.15625 -8.234375 6.71875 -8.234375 C 6.195312 -8.234375 5.707031 -8.097656 5.25 -7.828125 C 4.789062 -7.566406 4.394531 -7.203125 4.0625 -6.734375 C 3.726562 -6.265625 3.460938 -5.703125 3.265625 -5.046875 C 3.078125 -4.398438 2.984375 -3.6875 2.984375 -2.90625 C 2.984375 -2.40625 3.066406 -2.003906 3.234375 -1.703125 C 3.410156 -1.410156 3.613281 -1.265625 3.84375 -1.265625 Z M 3.84375 -1.265625 "/></g></g><g style="fill:#ff6d4d;fill-opacity:1;"><g transform="translate(177.39746, 256.25203)"><path style="stroke:none" d="M 4.078125 -0.484375 C 3.753906 -0.367188 3.378906 -0.257812 2.953125 -0.15625 C 2.535156 -0.0507812 2.125 0 1.71875 0 C 1.4375 0 1.351562 -0.148438 1.46875 -0.453125 C 1.863281 -1.410156 2.195312 -2.453125 2.46875 -3.578125 C 2.738281 -4.710938 2.929688 -5.722656 3.046875 -6.609375 C 3.117188 -7.410156 2.992188 -7.8125 2.671875 -7.8125 C 2.328125 -7.8125 1.90625 -7.550781 1.40625 -7.03125 C 1.289062 -6.976562 1.195312 -6.988281 1.125 -7.0625 C 1.0625 -7.132812 1.050781 -7.210938 1.09375 -7.296875 C 1.507812 -7.710938 1.972656 -8.0625 2.484375 -8.34375 C 2.992188 -8.632812 3.515625 -8.78125 4.046875 -8.78125 C 4.390625 -8.78125 4.617188 -8.675781 4.734375 -8.46875 C 4.847656 -8.257812 4.90625 -7.992188 4.90625 -7.671875 C 4.90625 -7.242188 4.859375 -6.734375 4.765625 -6.140625 C 4.671875 -5.546875 4.550781 -4.921875 4.40625 -4.265625 C 4.257812 -3.617188 4.097656 -2.976562 3.921875 -2.34375 C 3.753906 -1.71875 3.585938 -1.15625 3.421875 -0.65625 C 4.066406 -0.8125 4.703125 -1.101562 5.328125 -1.53125 C 5.960938 -1.96875 6.53125 -2.472656 7.03125 -3.046875 C 7.53125 -3.617188 7.929688 -4.242188 8.234375 -4.921875 C 8.546875 -5.597656 8.703125 -6.273438 8.703125 -6.953125 C 8.703125 -7.546875 8.519531 -7.84375 8.15625 -7.84375 C 7.945312 -7.84375 7.78125 -7.800781 7.65625 -7.71875 C 7.53125 -7.644531 7.398438 -7.503906 7.265625 -7.296875 C 7.203125 -7.253906 7.144531 -7.265625 7.09375 -7.328125 C 7.050781 -7.398438 7.039062 -7.472656 7.0625 -7.546875 C 7.21875 -7.796875 7.492188 -8.0625 7.890625 -8.34375 C 8.296875 -8.632812 8.71875 -8.78125 9.15625 -8.78125 C 9.519531 -8.78125 9.796875 -8.644531 9.984375 -8.375 C 10.179688 -8.113281 10.28125 -7.789062 10.28125 -7.40625 C 10.28125 -6.738281 10.109375 -6.066406 9.765625 -5.390625 C 9.421875 -4.722656 8.960938 -4.078125 8.390625 -3.453125 C 7.828125 -2.835938 7.164062 -2.273438 6.40625 -1.765625 C 5.65625 -1.253906 4.878906 -0.828125 4.078125 -0.484375 Z M 4.078125 -0.484375 "/></g></g><g style="fill:#ff6d4d;fill-opacity:1;"><g transform="translate(187.852061, 256.25203)"><path style="stroke:none" d="M 5.453125 -10.25 C 5.378906 -10.175781 5.300781 -10.175781 5.21875 -10.25 C 5.144531 -10.320312 5.082031 -10.421875 5.03125 -10.546875 C 4.988281 -10.671875 4.96875 -10.804688 4.96875 -10.953125 C 4.96875 -11.097656 5.003906 -11.226562 5.078125 -11.34375 C 5.328125 -11.664062 5.695312 -12.070312 6.1875 -12.5625 C 6.675781 -13.050781 7.1875 -13.46875 7.71875 -13.8125 C 7.757812 -13.832031 7.8125 -13.8125 7.875 -13.75 C 7.945312 -13.695312 7.972656 -13.648438 7.953125 -13.609375 C 7.472656 -13.171875 7.015625 -12.648438 6.578125 -12.046875 C 6.148438 -11.441406 5.773438 -10.84375 5.453125 -10.25 Z M 1.78125 -6.375 C 1.71875 -6.332031 1.660156 -6.347656 1.609375 -6.421875 C 1.566406 -6.503906 1.554688 -6.582031 1.578125 -6.65625 C 2.421875 -7.332031 3.597656 -8.039062 5.109375 -8.78125 C 5.285156 -8.78125 5.375 -8.675781 5.375 -8.46875 C 5.082031 -7.9375 4.789062 -7.363281 4.5 -6.75 C 4.21875 -6.132812 3.96875 -5.523438 3.75 -4.921875 C 3.53125 -4.316406 3.351562 -3.734375 3.21875 -3.171875 C 3.082031 -2.609375 3.015625 -2.144531 3.015625 -1.78125 C 3.015625 -1.320312 3.175781 -1.09375 3.5 -1.09375 C 3.75 -1.09375 3.992188 -1.203125 4.234375 -1.421875 C 4.472656 -1.640625 4.753906 -1.921875 5.078125 -2.265625 C 5.117188 -2.304688 5.171875 -2.296875 5.234375 -2.234375 C 5.304688 -2.179688 5.320312 -2.097656 5.28125 -1.984375 C 4.78125 -1.390625 4.28125 -0.910156 3.78125 -0.546875 C 3.289062 -0.179688 2.816406 0 2.359375 0 C 1.566406 0 1.171875 -0.375 1.171875 -1.125 C 1.171875 -1.539062 1.234375 -2.023438 1.359375 -2.578125 C 1.484375 -3.140625 1.648438 -3.710938 1.859375 -4.296875 C 2.078125 -4.878906 2.316406 -5.453125 2.578125 -6.015625 C 2.847656 -6.578125 3.117188 -7.0625 3.390625 -7.46875 C 3.140625 -7.332031 2.859375 -7.160156 2.546875 -6.953125 C 2.242188 -6.753906 1.988281 -6.5625 1.78125 -6.375 Z M 1.78125 -6.375 "/></g></g><g style="fill:#ff6d4d;fill-opacity:1;"><g transform="translate(193.542108, 256.25203)"><path style="stroke:none" d="M 4.484375 -14.1875 C 4.597656 -14.144531 4.703125 -14.003906 4.796875 -13.765625 C 4.890625 -13.523438 4.9375 -13.269531 4.9375 -13 C 4.9375 -12.238281 4.648438 -11.472656 4.078125 -10.703125 C 3.503906 -9.941406 2.757812 -9.300781 1.84375 -8.78125 C 1.757812 -8.78125 1.703125 -8.8125 1.671875 -8.875 C 1.648438 -8.945312 1.6875 -9.039062 1.78125 -9.15625 C 2.257812 -9.445312 2.648438 -9.820312 2.953125 -10.28125 C 3.265625 -10.738281 3.421875 -11.234375 3.421875 -11.765625 C 3.421875 -12.265625 3.296875 -12.570312 3.046875 -12.6875 C 2.984375 -12.75 2.988281 -12.863281 3.0625 -13.03125 C 3.144531 -13.207031 3.265625 -13.378906 3.421875 -13.546875 C 3.585938 -13.722656 3.765625 -13.875 3.953125 -14 C 4.148438 -14.125 4.328125 -14.1875 4.484375 -14.1875 Z M 4.484375 -14.1875 "/></g></g><g style="fill:#ff6d4d;fill-opacity:1;"><g transform="translate(196.764181, 256.25203)"><path style="stroke:none" d="M 5.3125 -8.78125 C 5.8125 -8.78125 6.21875 -8.707031 6.53125 -8.5625 C 6.84375 -8.425781 7 -8.257812 7 -8.0625 C 7 -7.800781 6.929688 -7.507812 6.796875 -7.1875 C 6.671875 -6.875 6.550781 -6.613281 6.4375 -6.40625 C 6.394531 -6.363281 6.335938 -6.359375 6.265625 -6.390625 C 6.203125 -6.421875 6.171875 -6.484375 6.171875 -6.578125 C 6.242188 -6.742188 6.28125 -6.972656 6.28125 -7.265625 C 6.28125 -7.585938 6.191406 -7.847656 6.015625 -8.046875 C 5.847656 -8.253906 5.613281 -8.359375 5.3125 -8.359375 C 4.925781 -8.359375 4.613281 -8.238281 4.375 -8 C 4.132812 -7.757812 4.015625 -7.425781 4.015625 -7 C 4.015625 -6.625 4.109375 -6.269531 4.296875 -5.9375 C 4.492188 -5.613281 4.710938 -5.285156 4.953125 -4.953125 C 5.191406 -4.617188 5.414062 -4.265625 5.625 -3.890625 C 5.832031 -3.515625 5.9375 -3.085938 5.9375 -2.609375 C 5.9375 -1.785156 5.601562 -1.144531 4.9375 -0.6875 C 4.269531 -0.226562 3.398438 0 2.328125 0 C 1.554688 0 0.945312 -0.125 0.5 -0.375 C 0.0507812 -0.625 -0.171875 -0.898438 -0.171875 -1.203125 C -0.171875 -1.296875 -0.132812 -1.421875 -0.0625 -1.578125 C 0 -1.734375 0.0859375 -1.898438 0.203125 -2.078125 C 0.316406 -2.265625 0.441406 -2.445312 0.578125 -2.625 C 0.710938 -2.8125 0.863281 -2.960938 1.03125 -3.078125 C 1.09375 -3.128906 1.148438 -3.117188 1.203125 -3.046875 C 1.265625 -2.984375 1.273438 -2.914062 1.234375 -2.84375 C 1.097656 -2.707031 0.992188 -2.5625 0.921875 -2.40625 C 0.859375 -2.257812 0.828125 -2.0625 0.828125 -1.8125 C 0.828125 -1.40625 0.960938 -1.066406 1.234375 -0.796875 C 1.503906 -0.535156 1.859375 -0.40625 2.296875 -0.40625 C 2.890625 -0.40625 3.351562 -0.570312 3.6875 -0.90625 C 4.019531 -1.238281 4.1875 -1.644531 4.1875 -2.125 C 4.1875 -2.5625 4.085938 -2.96875 3.890625 -3.34375 C 3.691406 -3.71875 3.476562 -4.082031 3.25 -4.4375 C 3.019531 -4.789062 2.804688 -5.148438 2.609375 -5.515625 C 2.421875 -5.878906 2.328125 -6.269531 2.328125 -6.6875 C 2.328125 -7.28125 2.578125 -7.773438 3.078125 -8.171875 C 3.585938 -8.578125 4.332031 -8.78125 5.3125 -8.78125 Z M 5.3125 -8.78125 "/></g></g><g style="fill:#ff6d4d;fill-opacity:1;"><g transform="translate(203.825322, 256.25203)"><path style="stroke:none" d=""/></g></g><g style="fill:#ff6d4d;fill-opacity:1;"><g transform="translate(208.966924, 256.25203)"><path style="stroke:none" d="M 16.625 -22.078125 C 17.445312 -22.078125 18.203125 -22.035156 18.890625 -21.953125 C 19.578125 -21.878906 20.171875 -21.757812 20.671875 -21.59375 C 21.171875 -21.4375 21.5625 -21.25 21.84375 -21.03125 C 22.132812 -20.8125 22.28125 -20.566406 22.28125 -20.296875 C 22.28125 -20.109375 22.234375 -19.859375 22.140625 -19.546875 C 22.054688 -19.242188 21.945312 -18.925781 21.8125 -18.59375 C 21.6875 -18.257812 21.546875 -17.929688 21.390625 -17.609375 C 21.234375 -17.296875 21.085938 -17.046875 20.953125 -16.859375 C 20.878906 -16.816406 20.789062 -16.820312 20.6875 -16.875 C 20.582031 -16.9375 20.554688 -17.023438 20.609375 -17.140625 C 21.085938 -17.984375 21.1875 -18.632812 20.90625 -19.09375 C 20.613281 -19.570312 19.988281 -20.03125 19.03125 -20.46875 C 18.070312 -20.90625 16.878906 -21.125 15.453125 -21.125 C 13.671875 -21.125 12.113281 -20.847656 10.78125 -20.296875 C 9.445312 -19.742188 8.332031 -18.960938 7.4375 -17.953125 C 6.550781 -16.953125 5.882812 -15.734375 5.4375 -14.296875 C 4.988281 -12.859375 4.765625 -11.25 4.765625 -9.46875 C 4.765625 -8.1875 4.9375 -7 5.28125 -5.90625 C 5.625 -4.820312 6.125 -3.882812 6.78125 -3.09375 C 7.445312 -2.3125 8.257812 -1.695312 9.21875 -1.25 C 10.175781 -0.800781 11.273438 -0.578125 12.515625 -0.578125 C 14.160156 -0.578125 15.53125 -1.085938 16.625 -2.109375 C 17.71875 -3.128906 18.492188 -4.484375 18.953125 -6.171875 C 19.003906 -6.285156 19.085938 -6.332031 19.203125 -6.3125 C 19.316406 -6.289062 19.375 -6.222656 19.375 -6.109375 C 19.28125 -5.617188 19.144531 -5.082031 18.96875 -4.5 C 18.800781 -3.925781 18.613281 -3.378906 18.40625 -2.859375 C 18.195312 -2.347656 17.988281 -1.898438 17.78125 -1.515625 C 17.582031 -1.140625 17.414062 -0.929688 17.28125 -0.890625 C 16.550781 -0.617188 15.734375 -0.398438 14.828125 -0.234375 C 13.921875 -0.078125 12.96875 0 11.96875 0 C 8.769531 0 6.367188 -0.738281 4.765625 -2.21875 C 3.160156 -3.707031 2.359375 -5.769531 2.359375 -8.40625 C 2.359375 -10.34375 2.707031 -12.148438 3.40625 -13.828125 C 4.101562 -15.515625 5.085938 -16.960938 6.359375 -18.171875 C 7.628906 -19.378906 9.128906 -20.332031 10.859375 -21.03125 C 12.597656 -21.726562 14.519531 -22.078125 16.625 -22.078125 Z M 16.625 -22.078125 "/></g></g><g style="fill:#ff6d4d;fill-opacity:1;"><g transform="translate(228.744968, 256.25203)"><path style="stroke:none" d="M 6.140625 -8.78125 C 6.941406 -8.78125 7.535156 -8.539062 7.921875 -8.0625 C 8.304688 -7.582031 8.5 -7.019531 8.5 -6.375 C 8.5 -5.488281 8.320312 -4.660156 7.96875 -3.890625 C 7.613281 -3.128906 7.175781 -2.457031 6.65625 -1.875 C 6.144531 -1.289062 5.59375 -0.832031 5 -0.5 C 4.40625 -0.164062 3.867188 0 3.390625 0 C 2.617188 0 2.03125 -0.234375 1.625 -0.703125 C 1.226562 -1.171875 1.03125 -1.769531 1.03125 -2.5 C 1.03125 -3.164062 1.171875 -3.863281 1.453125 -4.59375 C 1.742188 -5.320312 2.125 -5.992188 2.59375 -6.609375 C 3.0625 -7.234375 3.601562 -7.75 4.21875 -8.15625 C 4.832031 -8.570312 5.472656 -8.78125 6.140625 -8.78125 Z M 4.25 -1.0625 C 4.957031 -1.0625 5.554688 -1.429688 6.046875 -2.171875 C 6.535156 -2.921875 6.78125 -3.945312 6.78125 -5.25 C 6.78125 -5.9375 6.644531 -6.503906 6.375 -6.953125 C 6.101562 -7.410156 5.703125 -7.640625 5.171875 -7.640625 C 4.441406 -7.640625 3.847656 -7.285156 3.390625 -6.578125 C 2.929688 -5.867188 2.703125 -4.832031 2.703125 -3.46875 C 2.703125 -2.664062 2.84375 -2.0625 3.125 -1.65625 C 3.414062 -1.257812 3.789062 -1.0625 4.25 -1.0625 Z M 4.25 -1.0625 "/></g></g><g style="fill:#ff6d4d;fill-opacity:1;"><g transform="translate(237.588527, 256.25203)"><path style="stroke:none" d="M 15.703125 -25.46875 C 16.046875 -25.46875 16.320312 -25.378906 16.53125 -25.203125 C 16.75 -25.035156 16.898438 -24.804688 16.984375 -24.515625 C 17.066406 -24.234375 17.078125 -23.910156 17.015625 -23.546875 C 16.960938 -23.179688 16.832031 -22.816406 16.625 -22.453125 C 16.582031 -22.410156 16.523438 -22.410156 16.453125 -22.453125 C 16.390625 -22.492188 16.34375 -22.550781 16.3125 -22.625 C 16.363281 -22.894531 16.269531 -23.117188 16.03125 -23.296875 C 15.789062 -23.484375 15.414062 -23.578125 14.90625 -23.578125 C 13.96875 -23.578125 13.023438 -23.226562 12.078125 -22.53125 C 11.128906 -21.84375 10.207031 -20.925781 9.3125 -19.78125 C 8.425781 -18.632812 7.59375 -17.316406 6.8125 -15.828125 C 6.039062 -14.347656 5.367188 -12.816406 4.796875 -11.234375 C 4.222656 -9.660156 3.769531 -8.097656 3.4375 -6.546875 C 3.113281 -4.992188 2.953125 -3.578125 2.953125 -2.296875 C 2.953125 -1.609375 3.144531 -1.265625 3.53125 -1.265625 C 3.800781 -1.265625 4.066406 -1.378906 4.328125 -1.609375 C 4.597656 -1.835938 4.90625 -2.179688 5.25 -2.640625 C 5.3125 -2.679688 5.367188 -2.671875 5.421875 -2.609375 C 5.484375 -2.554688 5.503906 -2.488281 5.484375 -2.40625 C 5.023438 -1.71875 4.488281 -1.144531 3.875 -0.6875 C 3.257812 -0.226562 2.695312 0 2.1875 0 C 1.757812 0 1.457031 -0.125 1.28125 -0.375 C 1.113281 -0.625 1.03125 -0.945312 1.03125 -1.34375 C 1.03125 -2.414062 1.257812 -3.753906 1.71875 -5.359375 C 2.175781 -6.972656 2.785156 -8.675781 3.546875 -10.46875 C 4.316406 -12.257812 5.203125 -14.046875 6.203125 -15.828125 C 7.210938 -17.617188 8.257812 -19.226562 9.34375 -20.65625 C 10.425781 -22.082031 11.515625 -23.238281 12.609375 -24.125 C 13.710938 -25.019531 14.742188 -25.46875 15.703125 -25.46875 Z M 15.703125 -25.46875 "/></g></g><g style="fill:#ff6d4d;fill-opacity:1;"><g transform="translate(242.730128, 256.25203)"><path style="stroke:none" d="M 15.703125 -25.46875 C 16.046875 -25.46875 16.320312 -25.378906 16.53125 -25.203125 C 16.75 -25.035156 16.898438 -24.804688 16.984375 -24.515625 C 17.066406 -24.234375 17.078125 -23.910156 17.015625 -23.546875 C 16.960938 -23.179688 16.832031 -22.816406 16.625 -22.453125 C 16.582031 -22.410156 16.523438 -22.410156 16.453125 -22.453125 C 16.390625 -22.492188 16.34375 -22.550781 16.3125 -22.625 C 16.363281 -22.894531 16.269531 -23.117188 16.03125 -23.296875 C 15.789062 -23.484375 15.414062 -23.578125 14.90625 -23.578125 C 13.96875 -23.578125 13.023438 -23.226562 12.078125 -22.53125 C 11.128906 -21.84375 10.207031 -20.925781 9.3125 -19.78125 C 8.425781 -18.632812 7.59375 -17.316406 6.8125 -15.828125 C 6.039062 -14.347656 5.367188 -12.816406 4.796875 -11.234375 C 4.222656 -9.660156 3.769531 -8.097656 3.4375 -6.546875 C 3.113281 -4.992188 2.953125 -3.578125 2.953125 -2.296875 C 2.953125 -1.609375 3.144531 -1.265625 3.53125 -1.265625 C 3.800781 -1.265625 4.066406 -1.378906 4.328125 -1.609375 C 4.597656 -1.835938 4.90625 -2.179688 5.25 -2.640625 C 5.3125 -2.679688 5.367188 -2.671875 5.421875 -2.609375 C 5.484375 -2.554688 5.503906 -2.488281 5.484375 -2.40625 C 5.023438 -1.71875 4.488281 -1.144531 3.875 -0.6875 C 3.257812 -0.226562 2.695312 0 2.1875 0 C 1.757812 0 1.457031 -0.125 1.28125 -0.375 C 1.113281 -0.625 1.03125 -0.945312 1.03125 -1.34375 C 1.03125 -2.414062 1.257812 -3.753906 1.71875 -5.359375 C 2.175781 -6.972656 2.785156 -8.675781 3.546875 -10.46875 C 4.316406 -12.257812 5.203125 -14.046875 6.203125 -15.828125 C 7.210938 -17.617188 8.257812 -19.226562 9.34375 -20.65625 C 10.425781 -22.082031 11.515625 -23.238281 12.609375 -24.125 C 13.710938 -25.019531 14.742188 -25.46875 15.703125 -25.46875 Z M 15.703125 -25.46875 "/></g></g><g style="fill:#ff6d4d;fill-opacity:1;"><g transform="translate(247.87173, 256.25203)"><path style="stroke:none" d="M 8.125 -7.0625 C 8.125 -5.757812 6.398438 -4.867188 2.953125 -4.390625 C 2.921875 -4.160156 2.898438 -3.929688 2.890625 -3.703125 C 2.878906 -3.472656 2.875 -3.234375 2.875 -2.984375 C 2.875 -2.390625 3.007812 -1.929688 3.28125 -1.609375 C 3.5625 -1.285156 4 -1.125 4.59375 -1.125 C 5.03125 -1.125 5.472656 -1.25 5.921875 -1.5 C 6.378906 -1.757812 6.75 -2.082031 7.03125 -2.46875 C 7.125 -2.507812 7.191406 -2.488281 7.234375 -2.40625 C 7.273438 -2.332031 7.285156 -2.25 7.265625 -2.15625 C 6.804688 -1.5625 6.226562 -1.050781 5.53125 -0.625 C 4.832031 -0.207031 4.085938 0 3.296875 0 C 2.492188 0 1.914062 -0.195312 1.5625 -0.59375 C 1.207031 -1 1.03125 -1.566406 1.03125 -2.296875 C 1.03125 -3.003906 1.175781 -3.738281 1.46875 -4.5 C 1.769531 -5.269531 2.15625 -5.972656 2.625 -6.609375 C 3.09375 -7.253906 3.628906 -7.773438 4.234375 -8.171875 C 4.835938 -8.578125 5.445312 -8.78125 6.0625 -8.78125 C 6.6875 -8.78125 7.1875 -8.601562 7.5625 -8.25 C 7.9375 -7.894531 8.125 -7.5 8.125 -7.0625 Z M 5.140625 -7.890625 C 4.617188 -7.890625 4.164062 -7.640625 3.78125 -7.140625 C 3.40625 -6.648438 3.148438 -5.894531 3.015625 -4.875 C 4.109375 -4.988281 4.914062 -5.195312 5.4375 -5.5 C 5.96875 -5.8125 6.234375 -6.195312 6.234375 -6.65625 C 6.234375 -7 6.128906 -7.289062 5.921875 -7.53125 C 5.722656 -7.769531 5.460938 -7.890625 5.140625 -7.890625 Z M 5.140625 -7.890625 "/></g></g><g style="fill:#ff6d4d;fill-opacity:1;"><g transform="translate(255.995466, 256.25203)"><path style="stroke:none" d="M 6.78125 -5.6875 C 6.644531 -5.644531 6.578125 -5.703125 6.578125 -5.859375 C 6.742188 -6.335938 6.71875 -6.757812 6.5 -7.125 C 6.28125 -7.488281 5.882812 -7.671875 5.3125 -7.671875 C 4.582031 -7.671875 3.992188 -7.210938 3.546875 -6.296875 C 3.097656 -5.390625 2.875 -4.207031 2.875 -2.75 C 2.875 -1.664062 3.296875 -1.125 4.140625 -1.125 C 4.535156 -1.125 4.96875 -1.265625 5.4375 -1.546875 C 5.90625 -1.835938 6.332031 -2.210938 6.71875 -2.671875 C 6.8125 -2.722656 6.890625 -2.710938 6.953125 -2.640625 C 7.023438 -2.566406 7.039062 -2.488281 7 -2.40625 C 6.425781 -1.664062 5.785156 -1.078125 5.078125 -0.640625 C 4.367188 -0.210938 3.613281 0 2.8125 0 C 2.3125 0 1.890625 -0.175781 1.546875 -0.53125 C 1.203125 -0.882812 1.03125 -1.378906 1.03125 -2.015625 C 1.03125 -2.816406 1.191406 -3.625 1.515625 -4.4375 C 1.847656 -5.25 2.273438 -5.972656 2.796875 -6.609375 C 3.328125 -7.253906 3.898438 -7.773438 4.515625 -8.171875 C 5.140625 -8.578125 5.75 -8.78125 6.34375 -8.78125 C 6.863281 -8.78125 7.269531 -8.628906 7.5625 -8.328125 C 7.863281 -8.035156 8.015625 -7.707031 8.015625 -7.34375 C 8.015625 -7.195312 7.972656 -7.046875 7.890625 -6.890625 C 7.816406 -6.734375 7.71875 -6.570312 7.59375 -6.40625 C 7.46875 -6.25 7.328125 -6.101562 7.171875 -5.96875 C 7.023438 -5.832031 6.894531 -5.738281 6.78125 -5.6875 Z M 6.78125 -5.6875 "/></g></g><g style="fill:#ff6d4d;fill-opacity:1;"><g transform="translate(263.844991, 256.25203)"><path style="stroke:none" d="M 7.609375 -8.609375 C 7.722656 -8.554688 7.769531 -8.488281 7.75 -8.40625 C 7.726562 -8.332031 7.625 -8.273438 7.4375 -8.234375 C 7.09375 -8.234375 6.695312 -8.21875 6.25 -8.1875 C 5.8125 -8.164062 5.335938 -8.132812 4.828125 -8.09375 C 4.367188 -6.96875 3.988281 -5.875 3.6875 -4.8125 C 3.394531 -3.75 3.25 -2.890625 3.25 -2.234375 C 3.25 -1.453125 3.546875 -1.0625 4.140625 -1.0625 C 4.742188 -1.0625 5.410156 -1.578125 6.140625 -2.609375 C 6.203125 -2.648438 6.257812 -2.644531 6.3125 -2.59375 C 6.375 -2.550781 6.394531 -2.472656 6.375 -2.359375 C 5.988281 -1.722656 5.5 -1.171875 4.90625 -0.703125 C 4.3125 -0.234375 3.726562 0 3.15625 0 C 2.5625 0 2.117188 -0.140625 1.828125 -0.421875 C 1.546875 -0.710938 1.40625 -1.109375 1.40625 -1.609375 C 1.40625 -2.273438 1.5625 -3.191406 1.875 -4.359375 C 2.195312 -5.523438 2.613281 -6.710938 3.125 -7.921875 C 2.53125 -7.847656 1.976562 -7.753906 1.46875 -7.640625 C 1.351562 -7.660156 1.320312 -7.71875 1.375 -7.8125 C 1.4375 -7.90625 1.539062 -8.003906 1.6875 -8.109375 C 1.84375 -8.210938 2.019531 -8.300781 2.21875 -8.375 C 2.425781 -8.457031 2.625 -8.5 2.8125 -8.5 C 2.90625 -8.5 2.992188 -8.5 3.078125 -8.5 C 3.171875 -8.5 3.265625 -8.507812 3.359375 -8.53125 C 3.660156 -9.195312 3.96875 -9.835938 4.28125 -10.453125 C 4.601562 -11.066406 4.925781 -11.628906 5.25 -12.140625 C 5.382812 -12.296875 5.570312 -12.4375 5.8125 -12.5625 C 6.050781 -12.6875 6.285156 -12.78125 6.515625 -12.84375 C 6.742188 -12.914062 6.929688 -12.957031 7.078125 -12.96875 C 7.222656 -12.988281 7.285156 -12.953125 7.265625 -12.859375 C 6.878906 -12.265625 6.492188 -11.597656 6.109375 -10.859375 C 5.734375 -10.128906 5.378906 -9.367188 5.046875 -8.578125 C 5.472656 -8.597656 5.910156 -8.609375 6.359375 -8.609375 C 6.804688 -8.609375 7.222656 -8.609375 7.609375 -8.609375 Z M 7.609375 -8.609375 "/></g></g><g style="fill:#ff6d4d;fill-opacity:1;"><g transform="translate(270.254861, 256.25203)"><path style="stroke:none" d="M 5.453125 -10.25 C 5.378906 -10.175781 5.300781 -10.175781 5.21875 -10.25 C 5.144531 -10.320312 5.082031 -10.421875 5.03125 -10.546875 C 4.988281 -10.671875 4.96875 -10.804688 4.96875 -10.953125 C 4.96875 -11.097656 5.003906 -11.226562 5.078125 -11.34375 C 5.328125 -11.664062 5.695312 -12.070312 6.1875 -12.5625 C 6.675781 -13.050781 7.1875 -13.46875 7.71875 -13.8125 C 7.757812 -13.832031 7.8125 -13.8125 7.875 -13.75 C 7.945312 -13.695312 7.972656 -13.648438 7.953125 -13.609375 C 7.472656 -13.171875 7.015625 -12.648438 6.578125 -12.046875 C 6.148438 -11.441406 5.773438 -10.84375 5.453125 -10.25 Z M 1.78125 -6.375 C 1.71875 -6.332031 1.660156 -6.347656 1.609375 -6.421875 C 1.566406 -6.503906 1.554688 -6.582031 1.578125 -6.65625 C 2.421875 -7.332031 3.597656 -8.039062 5.109375 -8.78125 C 5.285156 -8.78125 5.375 -8.675781 5.375 -8.46875 C 5.082031 -7.9375 4.789062 -7.363281 4.5 -6.75 C 4.21875 -6.132812 3.96875 -5.523438 3.75 -4.921875 C 3.53125 -4.316406 3.351562 -3.734375 3.21875 -3.171875 C 3.082031 -2.609375 3.015625 -2.144531 3.015625 -1.78125 C 3.015625 -1.320312 3.175781 -1.09375 3.5 -1.09375 C 3.75 -1.09375 3.992188 -1.203125 4.234375 -1.421875 C 4.472656 -1.640625 4.753906 -1.921875 5.078125 -2.265625 C 5.117188 -2.304688 5.171875 -2.296875 5.234375 -2.234375 C 5.304688 -2.179688 5.320312 -2.097656 5.28125 -1.984375 C 4.78125 -1.390625 4.28125 -0.910156 3.78125 -0.546875 C 3.289062 -0.179688 2.816406 0 2.359375 0 C 1.566406 0 1.171875 -0.375 1.171875 -1.125 C 1.171875 -1.539062 1.234375 -2.023438 1.359375 -2.578125 C 1.484375 -3.140625 1.648438 -3.710938 1.859375 -4.296875 C 2.078125 -4.878906 2.316406 -5.453125 2.578125 -6.015625 C 2.847656 -6.578125 3.117188 -7.0625 3.390625 -7.46875 C 3.140625 -7.332031 2.859375 -7.160156 2.546875 -6.953125 C 2.242188 -6.753906 1.988281 -6.5625 1.78125 -6.375 Z M 1.78125 -6.375 "/></g></g><g style="fill:#ff6d4d;fill-opacity:1;"><g transform="translate(275.944909, 256.25203)"><path style="stroke:none" d="M 6.140625 -8.78125 C 6.941406 -8.78125 7.535156 -8.539062 7.921875 -8.0625 C 8.304688 -7.582031 8.5 -7.019531 8.5 -6.375 C 8.5 -5.488281 8.320312 -4.660156 7.96875 -3.890625 C 7.613281 -3.128906 7.175781 -2.457031 6.65625 -1.875 C 6.144531 -1.289062 5.59375 -0.832031 5 -0.5 C 4.40625 -0.164062 3.867188 0 3.390625 0 C 2.617188 0 2.03125 -0.234375 1.625 -0.703125 C 1.226562 -1.171875 1.03125 -1.769531 1.03125 -2.5 C 1.03125 -3.164062 1.171875 -3.863281 1.453125 -4.59375 C 1.742188 -5.320312 2.125 -5.992188 2.59375 -6.609375 C 3.0625 -7.234375 3.601562 -7.75 4.21875 -8.15625 C 4.832031 -8.570312 5.472656 -8.78125 6.140625 -8.78125 Z M 4.25 -1.0625 C 4.957031 -1.0625 5.554688 -1.429688 6.046875 -2.171875 C 6.535156 -2.921875 6.78125 -3.945312 6.78125 -5.25 C 6.78125 -5.9375 6.644531 -6.503906 6.375 -6.953125 C 6.101562 -7.410156 5.703125 -7.640625 5.171875 -7.640625 C 4.441406 -7.640625 3.847656 -7.285156 3.390625 -6.578125 C 2.929688 -5.867188 2.703125 -4.832031 2.703125 -3.46875 C 2.703125 -2.664062 2.84375 -2.0625 3.125 -1.65625 C 3.414062 -1.257812 3.789062 -1.0625 4.25 -1.0625 Z M 4.25 -1.0625 "/></g></g><g style="fill:#ff6d4d;fill-opacity:1;"><g transform="translate(284.788479, 256.25203)"><path style="stroke:none" d="M 10.765625 -2.40625 C 10.804688 -2.445312 10.859375 -2.4375 10.921875 -2.375 C 10.992188 -2.320312 11.019531 -2.25 11 -2.15625 C 10.59375 -1.582031 10.117188 -1.078125 9.578125 -0.640625 C 9.046875 -0.210938 8.515625 0 7.984375 0 C 7.597656 0 7.296875 -0.125 7.078125 -0.375 C 6.859375 -0.625 6.75 -0.957031 6.75 -1.375 C 6.75 -2.175781 6.890625 -3.039062 7.171875 -3.96875 C 7.460938 -4.90625 7.847656 -5.859375 8.328125 -6.828125 C 8.398438 -6.984375 8.4375 -7.15625 8.4375 -7.34375 C 8.4375 -7.5625 8.332031 -7.671875 8.125 -7.671875 C 7.28125 -7.671875 6.34375 -7.09375 5.3125 -5.9375 C 4.28125 -4.789062 3.332031 -2.960938 2.46875 -0.453125 C 2.445312 -0.378906 2.375 -0.3125 2.25 -0.25 C 2.125 -0.195312 1.976562 -0.148438 1.8125 -0.109375 C 1.65625 -0.078125 1.492188 -0.0507812 1.328125 -0.03125 C 1.171875 -0.0078125 1.046875 0 0.953125 0 C 0.835938 0 0.75 -0.0195312 0.6875 -0.0625 C 0.632812 -0.113281 0.632812 -0.195312 0.6875 -0.3125 C 1.070312 -1.289062 1.460938 -2.367188 1.859375 -3.546875 C 2.265625 -4.722656 2.613281 -5.90625 2.90625 -7.09375 C 2.976562 -7.320312 2.988281 -7.488281 2.9375 -7.59375 C 2.894531 -7.695312 2.816406 -7.75 2.703125 -7.75 C 2.453125 -7.75 2.210938 -7.640625 1.984375 -7.421875 C 1.753906 -7.203125 1.550781 -6.96875 1.375 -6.71875 C 1.300781 -6.675781 1.234375 -6.6875 1.171875 -6.75 C 1.117188 -6.820312 1.101562 -6.890625 1.125 -6.953125 C 1.238281 -7.117188 1.394531 -7.300781 1.59375 -7.5 C 1.789062 -7.707031 2.015625 -7.910156 2.265625 -8.109375 C 2.515625 -8.304688 2.773438 -8.46875 3.046875 -8.59375 C 3.328125 -8.71875 3.601562 -8.78125 3.875 -8.78125 C 4.257812 -8.78125 4.515625 -8.660156 4.640625 -8.421875 C 4.765625 -8.179688 4.796875 -7.890625 4.734375 -7.546875 C 4.617188 -7.035156 4.5 -6.554688 4.375 -6.109375 C 4.25 -5.671875 4.09375 -5.175781 3.90625 -4.625 C 4.175781 -5.125 4.507812 -5.617188 4.90625 -6.109375 C 5.3125 -6.609375 5.757812 -7.054688 6.25 -7.453125 C 6.75 -7.859375 7.28125 -8.179688 7.84375 -8.421875 C 8.414062 -8.660156 9.023438 -8.78125 9.671875 -8.78125 C 9.941406 -8.78125 10.148438 -8.707031 10.296875 -8.5625 C 10.453125 -8.425781 10.53125 -8.269531 10.53125 -8.09375 C 10.53125 -7.769531 10.445312 -7.484375 10.28125 -7.234375 C 9.800781 -6.367188 9.394531 -5.472656 9.0625 -4.546875 C 8.738281 -3.617188 8.578125 -2.789062 8.578125 -2.0625 C 8.578125 -1.46875 8.769531 -1.171875 9.15625 -1.171875 C 9.40625 -1.171875 9.65625 -1.269531 9.90625 -1.46875 C 10.15625 -1.675781 10.441406 -1.988281 10.765625 -2.40625 Z M 10.765625 -2.40625 "/></g></g></g></svg>